<svg id="Layer_1" data-name="Layer 1" xmlns="http://www.w3.org/2000/svg" viewBox="0 0 111.28 36.98"><defs><style>.cls-1,.cls-2,.cls-3{fill:#34b9fd;}.cls-1{opacity:0.33;}.cls-1,.cls-2,.cls-4{isolation:isolate;}.cls-2{opacity:0.66;}.cls-5{fill:#444;}</style></defs><title>logo-upkey</title><g id="logo-upkey"><g id="Group_595" data-name="Group 595"><g id="Group_594" data-name="Group 594"><path id="Path_10455" data-name="Path 10455" class="cls-1" d="M0,24.39C-.6,31.2,11.66,36.09,17.51,36.82s15.65-1.09,18-6.21S26.9,19.33,19.39,18.34.49,19.42,0,24.39Z"/><path id="Path_10456" data-name="Path 10456" class="cls-2" d="M3.12,13.07C.4,19.78,11,28.42,16.58,30.93s15.83,3.65,19.78-.82-5.07-14-12.18-17.3S5.09,8.2,3.12,13.07Z"/><path id="Path_10457" data-name="Path 10457" class="cls-3" d="M13.24.85C7.62,5.39,12.69,18.11,16.35,23S28.68,34.42,34.3,32.43s2.12-15.28-2.53-21.61S17.33-2.45,13.24.85Z"/></g></g><g id="UPKEY" class="cls-4"><g class="cls-4"><path class="cls-5" d="M56,12.43v7.71c0,1.76.65,2.65,2.27,2.65s2.27-.89,2.27-2.65V12.43h2.66v7.42c0,3.71-1.33,5.37-4.93,5.37s-4.93-1.66-4.93-5.37V12.43Z"/><path class="cls-5" d="M65.88,25V12.43h5.94a3.7,3.7,0,0,1,3.82,4,3.7,3.7,0,0,1-3.82,4h-3.2V25Zm2.74-6.91H71.5a1.17,1.17,0,0,0,1.31-1.25v-.79a1.16,1.16,0,0,0-1.31-1.24H68.62Z"/><path class="cls-5" d="M82.06,19.53l-1.64,2V25H77.69V12.43h2.73v6h.11L82.31,16l2.83-3.55h3.1L84,17.6,88.62,25H85.39Z"/><path class="cls-5" d="M90.21,25V12.43h8.56v2.43H93v2.56h5v2.41H93v2.74h5.82V25Z"/><path class="cls-5" d="M104.22,25V20.08l-4.3-7.65H103l2.7,5h0l2.6-5h3L107,20.07V25Z"/></g></g></g></svg>